<mxfile host="app.diagrams.net" modified="2024-02-13T06:48:27.584Z" agent="Mozilla/5.0 (Windows NT 10.0; Win64; x64) AppleWebKit/537.36 (KHTML, like Gecko) Chrome/121.0.0.0 Safari/537.36" etag="MuVn719c6fNKcRLTaI55" version="23.1.2" type="github">
  <diagram name="Страница — 1" id="stIGvwX7gSF1lbJ1OtpS">
    <mxGraphModel dx="1433" dy="589" grid="1" gridSize="10" guides="1" tooltips="1" connect="1" arrows="1" fold="1" page="1" pageScale="1" pageWidth="827" pageHeight="1169" math="0" shadow="0">
      <root>
        <mxCell id="0" />
        <mxCell id="1" parent="0" />
        <mxCell id="uu78XkYvrvd_cX8xQq1Q-8" style="edgeStyle=orthogonalEdgeStyle;rounded=0;orthogonalLoop=1;jettySize=auto;html=1;entryX=1;entryY=0.25;entryDx=0;entryDy=0;" edge="1" parent="1" source="uu78XkYvrvd_cX8xQq1Q-2" target="uu78XkYvrvd_cX8xQq1Q-7">
          <mxGeometry relative="1" as="geometry" />
        </mxCell>
        <mxCell id="uu78XkYvrvd_cX8xQq1Q-12" style="edgeStyle=orthogonalEdgeStyle;rounded=0;orthogonalLoop=1;jettySize=auto;html=1;entryX=0.5;entryY=1;entryDx=0;entryDy=0;" edge="1" parent="1" source="uu78XkYvrvd_cX8xQq1Q-2" target="uu78XkYvrvd_cX8xQq1Q-10">
          <mxGeometry relative="1" as="geometry" />
        </mxCell>
        <mxCell id="uu78XkYvrvd_cX8xQq1Q-17" style="edgeStyle=orthogonalEdgeStyle;rounded=0;orthogonalLoop=1;jettySize=auto;html=1;entryX=0;entryY=0.25;entryDx=0;entryDy=0;" edge="1" parent="1" source="uu78XkYvrvd_cX8xQq1Q-2" target="uu78XkYvrvd_cX8xQq1Q-16">
          <mxGeometry relative="1" as="geometry" />
        </mxCell>
        <mxCell id="uu78XkYvrvd_cX8xQq1Q-2" value="SOA" style="ellipse;whiteSpace=wrap;html=1;" vertex="1" parent="1">
          <mxGeometry x="630" y="200" width="120" height="80" as="geometry" />
        </mxCell>
        <mxCell id="uu78XkYvrvd_cX8xQq1Q-5" value="" style="edgeStyle=orthogonalEdgeStyle;rounded=0;orthogonalLoop=1;jettySize=auto;html=1;" edge="1" parent="1" source="uu78XkYvrvd_cX8xQq1Q-2" target="uu78XkYvrvd_cX8xQq1Q-1">
          <mxGeometry relative="1" as="geometry">
            <mxPoint x="690" y="280" as="sourcePoint" />
            <mxPoint x="690" y="360" as="targetPoint" />
          </mxGeometry>
        </mxCell>
        <mxCell id="uu78XkYvrvd_cX8xQq1Q-1" value="Преимущества" style="swimlane;whiteSpace=wrap;html=1;" vertex="1" parent="1">
          <mxGeometry x="560" y="400" width="260" height="90" as="geometry" />
        </mxCell>
        <mxCell id="uu78XkYvrvd_cX8xQq1Q-6" value="1. Сокращение времени вывода на рынок&lt;br&gt;2. Эффективное обслуживание&lt;br&gt;3. Улучшенная адаптивность" style="text;html=1;align=left;verticalAlign=middle;resizable=0;points=[];autosize=1;strokeColor=none;fillColor=none;" vertex="1" parent="uu78XkYvrvd_cX8xQq1Q-1">
          <mxGeometry y="30" width="260" height="60" as="geometry" />
        </mxCell>
        <mxCell id="uu78XkYvrvd_cX8xQq1Q-7" value="Принципы" style="swimlane;whiteSpace=wrap;html=1;" vertex="1" parent="1">
          <mxGeometry x="260" y="200" width="200" height="100" as="geometry" />
        </mxCell>
        <mxCell id="uu78XkYvrvd_cX8xQq1Q-9" value="1. Обеспечение совместимости&lt;br&gt;2. Слабая взаимозависимость&lt;br&gt;3. Абстрагирование&lt;br&gt;4. Степень детализации" style="text;html=1;align=left;verticalAlign=middle;resizable=0;points=[];autosize=1;strokeColor=none;fillColor=none;" vertex="1" parent="uu78XkYvrvd_cX8xQq1Q-7">
          <mxGeometry y="30" width="200" height="70" as="geometry" />
        </mxCell>
        <mxCell id="uu78XkYvrvd_cX8xQq1Q-10" value="Компоненты" style="swimlane;whiteSpace=wrap;html=1;" vertex="1" parent="1">
          <mxGeometry x="615" y="40" width="150" height="80" as="geometry" />
        </mxCell>
        <mxCell id="uu78XkYvrvd_cX8xQq1Q-11" value="1. Поставщик сервиса&lt;br&gt;2. Потребитель сервиса&lt;br&gt;3. Сервисный реестр" style="text;html=1;align=left;verticalAlign=middle;resizable=0;points=[];autosize=1;strokeColor=none;fillColor=none;" vertex="1" parent="uu78XkYvrvd_cX8xQq1Q-10">
          <mxGeometry y="20" width="160" height="60" as="geometry" />
        </mxCell>
        <mxCell id="uu78XkYvrvd_cX8xQq1Q-13" value="Обслуживание" style="swimlane;whiteSpace=wrap;html=1;" vertex="1" parent="1">
          <mxGeometry x="840" y="40" width="200" height="90" as="geometry" />
        </mxCell>
        <mxCell id="uu78XkYvrvd_cX8xQq1Q-15" value="1. Реализация сервиса&lt;br&gt;2. Контракт на обслуживание&lt;br&gt;3. Интерфейс сервиса" style="text;html=1;align=center;verticalAlign=middle;resizable=0;points=[];autosize=1;strokeColor=none;fillColor=none;" vertex="1" parent="uu78XkYvrvd_cX8xQq1Q-13">
          <mxGeometry x="5" y="30" width="190" height="60" as="geometry" />
        </mxCell>
        <mxCell id="uu78XkYvrvd_cX8xQq1Q-14" style="edgeStyle=orthogonalEdgeStyle;rounded=0;orthogonalLoop=1;jettySize=auto;html=1;entryX=0;entryY=0.25;entryDx=0;entryDy=0;" edge="1" parent="1" source="uu78XkYvrvd_cX8xQq1Q-11" target="uu78XkYvrvd_cX8xQq1Q-13">
          <mxGeometry relative="1" as="geometry" />
        </mxCell>
        <mxCell id="uu78XkYvrvd_cX8xQq1Q-16" value="Прочие особенности" style="swimlane;whiteSpace=wrap;html=1;" vertex="1" parent="1">
          <mxGeometry x="920" y="200" width="300" height="110" as="geometry" />
        </mxCell>
        <mxCell id="uu78XkYvrvd_cX8xQq1Q-18" value="1. Ограничения при внедрении&lt;br&gt;2. Ограниченные возможности масштабирования&lt;br&gt;3. Усиление взаимозависимости&lt;br&gt;4. Единая точка отказа" style="text;html=1;align=center;verticalAlign=middle;resizable=0;points=[];autosize=1;strokeColor=none;fillColor=none;" vertex="1" parent="uu78XkYvrvd_cX8xQq1Q-16">
          <mxGeometry y="30" width="300" height="70" as="geometry" />
        </mxCell>
      </root>
    </mxGraphModel>
  </diagram>
</mxfile>
